<svg width="60" height="60" viewBox="0 0 60 60" fill="none" xmlns="http://www.w3.org/2000/svg">
<path d="M30.1534 48.5115C39.2066 48.5115 46.5456 41.1724 46.5456 32.1193C46.5456 23.0661 39.2066 15.7271 30.1534 15.7271C21.1003 15.7271 13.7612 23.0661 13.7612 32.1193C13.7612 41.1724 21.1003 48.5115 30.1534 48.5115Z" fill="#34AADF"/>
<path d="M20.7884 31.76C20.7884 31.76 28.9083 28.3056 31.7244 27.0892C32.8039 26.6026 36.4649 25.0457 36.4649 25.0457C36.4649 25.0457 38.1546 24.3645 38.0138 26.0188C37.9668 26.7 37.5913 29.084 37.2159 31.6627C36.6526 35.3119 36.0425 39.3015 36.0425 39.3015C36.0425 39.3015 35.9486 40.4206 35.1507 40.6152C34.3528 40.8098 33.0386 39.9341 32.8039 39.7394C32.6161 39.5935 29.2837 37.404 28.0634 36.3336C27.7349 36.0417 27.3594 35.4579 28.1103 34.7767C29.8 33.171 31.8183 31.1762 33.0386 29.9112C33.6018 29.3273 34.165 27.965 31.8182 29.6192C28.4859 32.0033 25.2004 34.2414 25.2004 34.2414C25.2004 34.2414 24.4494 34.728 23.0413 34.2901C21.6332 33.8522 19.9905 33.2683 19.9905 33.2683C19.9905 33.2683 18.8641 32.5385 20.7884 31.76Z" fill="white"/>
</svg>
