<svg width="66" height="66" viewBox="0 0 66 66" fill="none" xmlns="http://www.w3.org/2000/svg">
<path fill-rule="evenodd" clip-rule="evenodd" d="M52.2576 23.0342C52.5365 22.1625 52.2576 21.522 50.9302 21.522H46.5407C45.4246 21.522 44.91 22.0753 44.631 22.6855C44.631 22.6855 42.3987 27.7849 39.2365 31.0974C38.2134 32.0562 37.7484 32.3613 37.1903 32.3613C36.9113 32.3613 36.5074 32.0562 36.5074 31.1846V23.0342C36.5074 21.9882 36.1835 21.522 35.2533 21.522H28.3555C27.6581 21.522 27.2386 22.0075 27.2386 22.4676C27.2386 23.4592 28.8196 23.6879 28.9826 26.4774V32.5357C28.9826 33.864 28.7267 34.1048 28.1686 34.1048C26.6805 34.1048 23.0608 28.9825 20.914 23.1214C20.4933 21.9822 20.0713 21.522 18.9494 21.522H14.5599C13.3058 21.522 13.0549 22.0753 13.0549 22.6855C13.0549 23.7751 14.5431 29.1797 19.984 36.3276C23.6112 41.209 28.7217 43.8551 33.3721 43.8551C36.1623 43.8551 36.5075 43.2674 36.5075 42.255V38.5657C36.5075 37.3902 36.7718 37.1557 37.6554 37.1557C38.3064 37.1557 39.4225 37.4607 42.0268 39.8143C45.003 42.6037 45.4937 43.8551 47.1677 43.8551H51.5573C52.8114 43.8551 53.4385 43.2674 53.0767 42.1076C52.6809 40.9516 51.2599 39.2745 49.3744 37.2864C48.3512 36.1532 46.8166 34.9329 46.3516 34.3226C45.7005 33.5381 45.8866 33.1894 46.3516 32.4921C46.3516 32.4921 51.6996 25.4313 52.2576 23.0342Z" fill="#2787F5"/>
</svg>
