<svg width="60" height="60" viewBox="0 0 60 60" fill="none" xmlns="http://www.w3.org/2000/svg">
<path d="M15 43.8003L17.1524 35.8041C15.4165 32.6892 14.865 29.0544 15.5991 25.5667C16.3332 22.0789 18.3036 18.9721 21.1488 16.8165C23.9939 14.6609 27.523 13.601 31.0884 13.8313C34.6539 14.0615 38.0164 15.5666 40.5591 18.0702C43.1018 20.5738 44.6541 23.9081 44.9311 27.4612C45.2081 31.0142 44.1912 34.5478 42.0671 37.4134C39.9429 40.2789 36.854 42.2844 33.3672 43.0616C29.8803 43.8389 26.2294 43.3359 23.0843 41.6449L15 43.8003ZM23.4741 38.6527L23.9741 38.9485C26.2521 40.2953 28.9128 40.8526 31.5416 40.5336C34.1703 40.2147 36.6194 39.0373 38.5073 37.1849C40.3951 35.3326 41.6156 32.9094 41.9786 30.2929C42.3415 27.6765 41.8266 25.0138 40.514 22.7197C39.2014 20.4256 37.1648 18.6291 34.7217 17.6101C32.2786 16.5911 29.5661 16.4068 27.007 17.086C24.448 17.7651 22.186 19.2696 20.5736 21.365C18.9613 23.4603 18.0891 26.0288 18.0931 28.6702C18.0909 30.8603 18.6982 33.0081 19.8472 34.8744L20.1608 35.39L18.9574 39.8529L23.4741 38.6527Z" fill="#00D95F"/>
<path fill-rule="evenodd" clip-rule="evenodd" d="M35.6091 30.7231C35.316 30.4874 34.9728 30.3214 34.6057 30.2379C34.2385 30.1544 33.8572 30.1556 33.4906 30.2414C32.9397 30.4696 32.5838 31.3317 32.2279 31.7628C32.1528 31.8662 32.0426 31.9386 31.9178 31.9666C31.7929 31.9947 31.6622 31.9763 31.55 31.915C29.5334 31.1271 27.8431 29.6824 26.7536 27.8155C26.6607 27.699 26.6167 27.551 26.6309 27.4028C26.6452 27.2546 26.7165 27.1177 26.8299 27.0209C27.2268 26.6289 27.5183 26.1434 27.6773 25.6093C27.7126 25.0202 27.5773 24.4334 27.2875 23.9188C27.0634 23.1974 26.6371 22.5551 26.0587 22.0677C25.7604 21.9339 25.4297 21.889 25.1064 21.9385C24.7831 21.988 24.4811 22.1298 24.2368 22.3466C23.8126 22.7117 23.476 23.1669 23.2516 23.6789C23.0272 24.1909 22.9208 24.7466 22.9402 25.305C22.9416 25.6186 22.9814 25.9309 23.0589 26.2348C23.2557 26.9651 23.5583 27.6627 23.9571 28.3057C24.2449 28.7983 24.5589 29.2751 24.8978 29.7342C25.999 31.2421 27.3833 32.5224 28.9738 33.5041C29.772 34.0029 30.625 34.4084 31.5161 34.7128C32.4417 35.1313 33.4637 35.2919 34.4735 35.1777C35.0489 35.0908 35.5941 34.8642 36.061 34.5178C36.5279 34.1715 36.9024 33.7159 37.1514 33.1913C37.2977 32.8744 37.3421 32.5201 37.2785 32.177C37.126 31.4754 36.1853 31.0613 35.6091 30.7231Z" fill="#00D95F"/>
</svg>
